<svg xmlns="http://www.w3.org/2000/svg" viewBox="0 0 120 120">
  <defs>
    <linearGradient id="awsGrad1" x1="0%" y1="0%" x2="100%" y2="0%">
      <stop offset="0%" style="stop-color:#FF9900"/>
      <stop offset="100%" style="stop-color:#FF6600"/>
    </linearGradient>
  </defs>
  <path d="M30,45 L30,75 Q30,80 35,80 L85,80 Q90,80 90,75 L90,45 Q90,40 85,40 L35,40 Q30,40 30,45 Z" fill="url(#awsGrad1)"/>
  <path d="M40,50 L50,65 L40,65 Z M55,50 L65,65 L75,50 L70,50 L70,60 L60,60 L60,50 Z M80,50 L80,65 L85,65 L85,58 L95,65 L100,65 L90,58 L100,50 L95,50 L85,55 L85,50 Z" fill="white"/>
</svg>