<svg xmlns="http://www.w3.org/2000/svg" viewBox="0 0 120 120">
  <defs>
    <linearGradient id="pythonBlue1" x1="0%" y1="0%" x2="0%" y2="100%">
      <stop offset="0%" style="stop-color:#4B8BBE"/>
      <stop offset="100%" style="stop-color:#306998"/>
    </linearGradient>
    <linearGradient id="pythonYellow1" x1="0%" y1="100%" x2="0%" y2="0%">
      <stop offset="0%" style="stop-color:#FFD43B"/>
      <stop offset="100%" style="stop-color:#FFE873"/>
    </linearGradient>
  </defs>
  <path d="M40,30 Q40,20 50,20 L70,20 Q80,20 80,30 L80,60 Q80,70 70,70 L50,70 Q40,70 40,60 Z" fill="url(#pythonBlue1)"/>
  <path d="M80,60 Q80,70 70,70 L50,70 Q40,70 40,60 L40,30 Q40,20 50,20 L70,20 Q80,20 80,30 Z" fill="url(#pythonYellow1)"/>
  <circle cx="50" cy="35" r="5" fill="white"/>
  <circle cx="70" cy="55" r="5" fill="white"/>
</svg>